<svg width="128" height="128" viewBox="0 0 128 128" fill="none" xmlns="http://www.w3.org/2000/svg">
<g clip-path="url(#clip0_172_9098)">
<g clip-path="url(#clip1_172_9098)">
<path d="M102.314 124.593V115.859C102.314 114.956 101.954 114.09 101.315 113.452L71.4109 83.5276C71.0943 83.2107 70.7184 82.9594 70.3045 82.7879C69.8907 82.6165 69.4471 82.5284 68.9992 82.5286H58.1973C57.294 82.5292 56.4279 82.8886 55.7895 83.5276L26.6851 112.636C26.3679 112.951 26.1164 113.327 25.945 113.74C25.7735 114.153 25.6855 114.596 25.686 115.044V124.359C25.686 124.806 25.7742 125.249 25.9454 125.662C26.1167 126.075 26.3677 126.45 26.6841 126.766C27.0005 127.083 27.3761 127.333 27.7894 127.504C28.2027 127.675 28.6457 127.762 29.0929 127.762H38.1231C39.0259 127.762 39.8919 127.404 40.5309 126.767L56.0158 111.317C56.6549 110.679 57.5209 110.321 58.4236 110.322H69.4831C70.3856 110.323 71.2511 110.68 71.8909 111.317L87.5007 126.927C88.1355 127.559 88.9928 127.918 89.889 127.926L98.8958 127.988C99.3432 127.99 99.7865 127.903 100.2 127.733C100.614 127.563 100.991 127.314 101.308 126.999C101.626 126.683 101.878 126.309 102.051 125.896C102.223 125.483 102.313 125.04 102.314 124.593Z" fill="white"/>
<path d="M124.592 25.6871H115.858C114.956 25.688 114.09 26.0457 113.45 26.6823L83.542 56.6022C82.9055 57.242 82.5477 58.1076 82.5469 59.0101V69.812C82.5471 70.7157 82.9049 71.5827 83.542 72.2237L112.65 101.328C113.289 101.967 114.155 102.326 115.058 102.327H124.373C125.277 102.327 126.143 101.968 126.782 101.329C127.421 100.69 127.78 99.8238 127.78 98.9203V89.8901C127.78 89.4421 127.692 88.9985 127.521 88.5847C127.349 88.1709 127.098 87.7949 126.781 87.4783L111.32 72.0169C110.681 71.3785 110.321 70.5124 110.321 69.609V58.5535C110.321 57.6502 110.681 56.7841 111.32 56.1456L126.929 40.5359C127.563 39.9036 127.92 39.0465 127.924 38.1515L127.987 29.1447C127.994 28.694 127.911 28.2465 127.743 27.8281C127.576 27.4096 127.327 27.0286 127.011 26.707C126.695 26.3854 126.319 26.1297 125.904 25.9546C125.488 25.7795 125.042 25.6886 124.592 25.6871Z" fill="white"/>
<path d="M3.40761 102.315H12.1413C13.0446 102.315 13.9107 101.955 14.5491 101.316L44.4574 71.4081C45.095 70.769 45.4529 69.903 45.4525 69.0003V58.1983C45.4516 57.2958 45.0939 56.4303 44.4574 55.7906L15.3491 26.6823C14.7093 26.0457 13.8438 25.688 12.9413 25.6871H3.62614C2.72259 25.6871 1.85605 26.0461 1.21715 26.685C0.578244 27.3239 0.21931 28.1904 0.21931 29.094V38.1242C0.219939 39.0275 0.579287 39.8936 1.21834 40.532L16.6798 55.9934C17.3188 56.6319 17.6782 57.498 17.6788 58.4013V69.4803C17.6794 69.9277 17.5914 70.3708 17.4199 70.784C17.2485 71.1973 16.9969 71.5725 16.6798 71.8881L1.07004 87.4979C0.434544 88.1291 0.0752809 88.9865 0.0710182 89.8822L0.00858073 98.893C0.00652663 99.341 0.0928703 99.7851 0.262672 100.2C0.432473 100.614 0.682396 100.991 0.998128 101.309C1.31386 101.627 1.6892 101.88 2.10265 102.052C2.5161 102.225 2.95955 102.314 3.40761 102.315Z" fill="white"/>
<path d="M25.6863 3.40366V12.1373C25.6861 12.5853 25.7742 13.0288 25.9456 13.4427C26.1171 13.8565 26.3684 14.2324 26.6853 14.549L56.5936 44.4534C56.9092 44.7705 57.2844 45.0221 57.6977 45.1935C58.1109 45.365 58.554 45.453 59.0014 45.4525H69.8033C70.7067 45.4518 71.5727 45.0925 72.2112 44.4534L101.316 15.349C101.955 14.7106 102.314 13.8445 102.315 12.9412V3.6261C102.315 3.17871 102.226 2.7357 102.055 2.32237C101.884 1.90903 101.633 1.53347 101.317 1.21711C101 0.900759 100.625 0.649802 100.211 0.478593C99.7981 0.307384 99.3551 0.21928 98.9077 0.21928H89.8775C89.4301 0.218738 88.987 0.306729 88.5738 0.478188C88.1605 0.649647 87.7853 0.901184 87.4697 1.2183L72.016 16.6798C71.7004 16.9969 71.3252 17.2484 70.912 17.4199C70.4987 17.5913 70.0556 17.6793 69.6082 17.6788H58.5409C58.093 17.679 57.6494 17.5909 57.2356 17.4194C56.8217 17.248 56.4458 16.9967 56.1292 16.6798L40.5194 1.07001C39.8852 0.437147 39.0271 0.079633 38.1312 0.0748914L29.1165 0.0163453C28.6687 0.0127453 28.2245 0.0975871 27.8095 0.266012C27.3945 0.434437 27.0168 0.683142 26.6981 0.997838C26.3795 1.31253 26.126 1.68703 25.9524 2.09988C25.7787 2.51272 25.6883 2.95579 25.6863 3.40366Z" fill="white"/>
</g>
</g>
<defs>
<clipPath id="clip0_172_9098">
<rect width="128" height="128" fill="white"/>
</clipPath>
<clipPath id="clip1_172_9098">
<rect width="128" height="128" fill="white"/>
</clipPath>
</defs>
</svg>
